<mxfile host="app.diagrams.net" modified="2021-06-05T09:06:04.130Z" agent="5.0 (Windows NT 10.0; Win64; x64) AppleWebKit/537.36 (KHTML, like Gecko) Chrome/90.0.4430.212 Safari/537.36" etag="Dr3Vp2lhX5Q2PXl6mb8I" version="14.6.9" type="github">
  <diagram id="d0O2t0l7nCjJ0RANhwD6" name="Page-1">
    <mxGraphModel dx="981" dy="548" grid="1" gridSize="10" guides="1" tooltips="1" connect="1" arrows="1" fold="1" page="1" pageScale="1" pageWidth="827" pageHeight="1169" math="0" shadow="0">
      <root>
        <mxCell id="0" />
        <mxCell id="1" parent="0" />
        <mxCell id="uHFLuxaYbByMKSDUNxEg-1" value="Home Chef&lt;br&gt;(Primary Actor)" style="shape=umlActor;verticalLabelPosition=bottom;verticalAlign=top;html=1;outlineConnect=0;" parent="1" vertex="1">
          <mxGeometry x="70" y="190" width="30" height="60" as="geometry" />
        </mxCell>
        <mxCell id="uHFLuxaYbByMKSDUNxEg-2" value="" style="rounded=0;whiteSpace=wrap;html=1;" parent="1" vertex="1">
          <mxGeometry x="180" y="30" width="360" height="590" as="geometry" />
        </mxCell>
        <mxCell id="uHFLuxaYbByMKSDUNxEg-4" value="" style="rounded=0;whiteSpace=wrap;html=1;" parent="1" vertex="1">
          <mxGeometry x="303" y="50" width="130" height="30" as="geometry" />
        </mxCell>
        <mxCell id="uHFLuxaYbByMKSDUNxEg-5" value="Chefs Friend" style="text;html=1;strokeColor=none;fillColor=none;align=center;verticalAlign=middle;whiteSpace=wrap;rounded=0;" parent="1" vertex="1">
          <mxGeometry x="325" y="55" width="86" height="20" as="geometry" />
        </mxCell>
        <mxCell id="xsGUAwIPjq5T2tPu7MOI-1" value="&lt;font style=&quot;font-size: 9px&quot;&gt;Create Recipe&lt;/font&gt;" style="ellipse;whiteSpace=wrap;html=1;fillColor=#d5e8d4;strokeColor=#82b366;" parent="1" vertex="1">
          <mxGeometry x="230" y="100" width="70" height="30" as="geometry" />
        </mxCell>
        <mxCell id="xsGUAwIPjq5T2tPu7MOI-3" value="" style="endArrow=none;html=1;" parent="1" target="xsGUAwIPjq5T2tPu7MOI-1" edge="1">
          <mxGeometry width="50" height="50" relative="1" as="geometry">
            <mxPoint x="110" y="220" as="sourcePoint" />
            <mxPoint x="180" y="170" as="targetPoint" />
          </mxGeometry>
        </mxCell>
        <mxCell id="xsGUAwIPjq5T2tPu7MOI-33" value="&lt;font style=&quot;font-size: 9px&quot;&gt;Copy/Scrape Recipe Website&lt;/font&gt;" style="ellipse;whiteSpace=wrap;html=1;fillColor=#f8cecc;strokeColor=#b85450;" parent="1" vertex="1">
          <mxGeometry x="363" y="170" width="70" height="30" as="geometry" />
        </mxCell>
        <mxCell id="cedx61HuCPGpUXk9RweX-6" value="&lt;font style=&quot;font-size: 9px&quot;&gt;Search/See Recipes&lt;/font&gt;" style="ellipse;whiteSpace=wrap;html=1;fillColor=#d5e8d4;strokeColor=#82b366;" parent="1" vertex="1">
          <mxGeometry x="230" y="170" width="70" height="30" as="geometry" />
        </mxCell>
        <mxCell id="cedx61HuCPGpUXk9RweX-7" value="" style="endArrow=none;html=1;" parent="1" target="cedx61HuCPGpUXk9RweX-6" edge="1">
          <mxGeometry width="50" height="50" relative="1" as="geometry">
            <mxPoint x="110" y="220" as="sourcePoint" />
            <mxPoint x="269.5509019823239" y="155.2977020329257" as="targetPoint" />
            <Array as="points" />
          </mxGeometry>
        </mxCell>
        <mxCell id="cedx61HuCPGpUXk9RweX-10" value="" style="endArrow=none;html=1;" parent="1" target="cedx61HuCPGpUXk9RweX-11" edge="1">
          <mxGeometry width="50" height="50" relative="1" as="geometry">
            <mxPoint x="110" y="220" as="sourcePoint" />
            <mxPoint x="269.5509019823239" y="195.2977020329257" as="targetPoint" />
            <Array as="points" />
          </mxGeometry>
        </mxCell>
        <mxCell id="cedx61HuCPGpUXk9RweX-11" value="&lt;font style=&quot;font-size: 9px&quot;&gt;Make Food Plan&lt;/font&gt;" style="ellipse;whiteSpace=wrap;html=1;fillColor=#d5e8d4;strokeColor=#82b366;" parent="1" vertex="1">
          <mxGeometry x="255" y="270" width="70" height="30" as="geometry" />
        </mxCell>
        <mxCell id="cedx61HuCPGpUXk9RweX-12" value="&lt;font style=&quot;font-size: 9px&quot;&gt;Get Recipe Suggestion&lt;/font&gt;" style="ellipse;whiteSpace=wrap;html=1;" parent="1" vertex="1">
          <mxGeometry x="433" y="270" width="70" height="30" as="geometry" />
        </mxCell>
        <mxCell id="cedx61HuCPGpUXk9RweX-14" value="&lt;font size=&quot;1&quot;&gt;Edit Food Profile (Diet/Pallet) + shuffle settings&lt;/font&gt;" style="ellipse;whiteSpace=wrap;html=1;" parent="1" vertex="1">
          <mxGeometry x="285" y="470" width="70" height="30" as="geometry" />
        </mxCell>
        <mxCell id="cedx61HuCPGpUXk9RweX-15" value="&lt;font size=&quot;1&quot;&gt;Dietary Settings&lt;/font&gt;&lt;span style=&quot;color: rgba(0 , 0 , 0 , 0) ; font-family: monospace ; font-size: 0px&quot;&gt;%3CmxGraphModel%3E%3Croot%3E%3CmxCell%20id%3D%220%22%2F%3E%3CmxCell%20id%3D%221%22%20parent%3D%220%22%2F%3E%3CmxCell%20id%3D%222%22%20value%3D%22%26lt%3Bfont%20size%3D%26quot%3B1%26quot%3B%26gt%3BEdit%20Food%20Profile%20(Diet%2FPallet)%20%2B%20shuffle%20settings%26lt%3B%2Ffont%26gt%3B%22%20style%3D%22ellipse%3BwhiteSpace%3Dwrap%3Bhtml%3D1%3B%22%20vertex%3D%221%22%20parent%3D%221%22%3E%3CmxGeometry%20x%3D%22277%22%20y%3D%22350%22%20width%3D%2270%22%20height%3D%2230%22%20as%3D%22geometry%22%2F%3E%3C%2FmxCell%3E%3C%2Froot%3E%3C%2FmxGraphModel%3E&lt;/span&gt;" style="ellipse;whiteSpace=wrap;html=1;fillColor=#fff2cc;strokeColor=#d6b656;" parent="1" vertex="1">
          <mxGeometry x="285" y="555" width="70" height="30" as="geometry" />
        </mxCell>
        <mxCell id="n8YXVQ3rzS2zLUIyPKuh-2" value="&lt;font&gt;&lt;font size=&quot;1&quot;&gt;Update Recipe Prices&lt;/font&gt;&lt;br&gt;&lt;/font&gt;" style="ellipse;whiteSpace=wrap;html=1;fillColor=#ffe6cc;strokeColor=#d79b00;" parent="1" vertex="1">
          <mxGeometry x="433" y="470" width="70" height="30" as="geometry" />
        </mxCell>
        <mxCell id="n8YXVQ3rzS2zLUIyPKuh-12" value="&lt;font size=&quot;1&quot;&gt;Add Ingredients&lt;/font&gt;" style="ellipse;whiteSpace=wrap;html=1;fillColor=#d5e8d4;strokeColor=#82b366;" parent="1" vertex="1">
          <mxGeometry x="355" y="100" width="70" height="30" as="geometry" />
        </mxCell>
        <mxCell id="n8YXVQ3rzS2zLUIyPKuh-13" value="&lt;font style=&quot;font-size: 6px&quot;&gt;Include&lt;/font&gt;" style="endArrow=none;dashed=1;html=1;startArrow=classic;startFill=1;" parent="1" source="xsGUAwIPjq5T2tPu7MOI-1" target="n8YXVQ3rzS2zLUIyPKuh-12" edge="1">
          <mxGeometry width="50" height="50" relative="1" as="geometry">
            <mxPoint x="378.3699999999999" y="260.3900000000001" as="sourcePoint" />
            <mxPoint x="320.0000000000023" y="235" as="targetPoint" />
          </mxGeometry>
        </mxCell>
        <mxCell id="n8YXVQ3rzS2zLUIyPKuh-16" value="" style="endArrow=none;html=1;entryX=0.041;entryY=0.648;entryDx=0;entryDy=0;entryPerimeter=0;" parent="1" target="cedx61HuCPGpUXk9RweX-14" edge="1">
          <mxGeometry width="50" height="50" relative="1" as="geometry">
            <mxPoint x="110" y="220" as="sourcePoint" />
            <mxPoint x="248.38301090711843" y="331.7983604439952" as="targetPoint" />
            <Array as="points" />
          </mxGeometry>
        </mxCell>
        <mxCell id="n8YXVQ3rzS2zLUIyPKuh-17" value="" style="endArrow=none;html=1;entryX=0.058;entryY=0.737;entryDx=0;entryDy=0;entryPerimeter=0;" parent="1" target="cedx61HuCPGpUXk9RweX-15" edge="1">
          <mxGeometry width="50" height="50" relative="1" as="geometry">
            <mxPoint x="110" y="220" as="sourcePoint" />
            <mxPoint x="289.8700000000001" y="429.44000000000005" as="targetPoint" />
            <Array as="points" />
          </mxGeometry>
        </mxCell>
        <mxCell id="n8YXVQ3rzS2zLUIyPKuh-20" value="&lt;font style=&quot;font-size: 6px&quot;&gt;&amp;lt;&amp;lt;include&amp;gt;&amp;gt;&lt;/font&gt;" style="endArrow=classic;dashed=1;html=1;startArrow=none;startFill=0;endFill=1;exitX=1;exitY=0.5;exitDx=0;exitDy=0;" parent="1" source="cedx61HuCPGpUXk9RweX-14" target="cedx61HuCPGpUXk9RweX-12" edge="1">
          <mxGeometry width="50" height="50" relative="1" as="geometry">
            <mxPoint x="610" y="542" as="sourcePoint" />
            <mxPoint x="394.816448964187" y="385.5775028371943" as="targetPoint" />
          </mxGeometry>
        </mxCell>
        <mxCell id="n8YXVQ3rzS2zLUIyPKuh-21" value="&lt;font style=&quot;font-size: 6px&quot;&gt;&amp;lt;&amp;lt;include&amp;gt;&amp;gt;&lt;/font&gt;" style="endArrow=classic;dashed=1;html=1;entryX=0.5;entryY=1;entryDx=0;entryDy=0;startArrow=none;startFill=0;endFill=1;exitX=0.934;exitY=0.708;exitDx=0;exitDy=0;exitPerimeter=0;" parent="1" source="cedx61HuCPGpUXk9RweX-15" target="cedx61HuCPGpUXk9RweX-12" edge="1">
          <mxGeometry width="50" height="50" relative="1" as="geometry">
            <mxPoint x="356.9999999999977" y="425" as="sourcePoint" />
            <mxPoint x="610.6600000000001" y="551.3600000000001" as="targetPoint" />
          </mxGeometry>
        </mxCell>
        <mxCell id="kMpt5xQr2XhZLbOPBm8U-7" value="Delivery Person&lt;br&gt;(Secondary Actor)" style="shape=umlActor;verticalLabelPosition=bottom;verticalAlign=top;html=1;outlineConnect=0;" vertex="1" parent="1">
          <mxGeometry x="630" y="280" width="30" height="60" as="geometry" />
        </mxCell>
        <mxCell id="kMpt5xQr2XhZLbOPBm8U-8" value="&lt;font style=&quot;font-size: 9px&quot;&gt;Order Food Plan&lt;/font&gt;" style="ellipse;whiteSpace=wrap;html=1;fillColor=#d5e8d4;strokeColor=#82b366;" vertex="1" parent="1">
          <mxGeometry x="300" y="340" width="70" height="30" as="geometry" />
        </mxCell>
        <mxCell id="kMpt5xQr2XhZLbOPBm8U-9" value="&lt;font style=&quot;font-size: 9px&quot;&gt;Get Shopping List&lt;/font&gt;" style="ellipse;whiteSpace=wrap;html=1;fillColor=#d5e8d4;strokeColor=#82b366;" vertex="1" parent="1">
          <mxGeometry x="220" y="340" width="70" height="30" as="geometry" />
        </mxCell>
        <mxCell id="kMpt5xQr2XhZLbOPBm8U-11" value="&lt;font style=&quot;font-size: 6px&quot;&gt;Extend&lt;/font&gt;" style="endArrow=classic;dashed=1;html=1;startArrow=none;startFill=0;endFill=1;exitX=0.5;exitY=1;exitDx=0;exitDy=0;" edge="1" parent="1" source="cedx61HuCPGpUXk9RweX-11" target="kMpt5xQr2XhZLbOPBm8U-9">
          <mxGeometry width="50" height="50" relative="1" as="geometry">
            <mxPoint x="324.74873734152925" y="310.6066017177982" as="sourcePoint" />
            <mxPoint x="610" y="527.2188003692581" as="targetPoint" />
          </mxGeometry>
        </mxCell>
        <mxCell id="kMpt5xQr2XhZLbOPBm8U-12" value="&lt;font style=&quot;font-size: 6px&quot;&gt;Extend&lt;/font&gt;" style="endArrow=classic;dashed=1;html=1;startArrow=none;startFill=0;endFill=1;exitX=0.5;exitY=1;exitDx=0;exitDy=0;entryX=0.671;entryY=0.067;entryDx=0;entryDy=0;entryPerimeter=0;" edge="1" parent="1" source="cedx61HuCPGpUXk9RweX-11" target="kMpt5xQr2XhZLbOPBm8U-8">
          <mxGeometry width="50" height="50" relative="1" as="geometry">
            <mxPoint x="300" y="315" as="sourcePoint" />
            <mxPoint x="332.4044776120875" y="351.0049751245415" as="targetPoint" />
          </mxGeometry>
        </mxCell>
        <mxCell id="kMpt5xQr2XhZLbOPBm8U-15" value="&lt;font style=&quot;font-size: 6px&quot;&gt;Extend&lt;/font&gt;" style="endArrow=classic;dashed=1;html=1;startArrow=none;startFill=0;endFill=1;" edge="1" parent="1" source="xsGUAwIPjq5T2tPu7MOI-33" target="n8YXVQ3rzS2zLUIyPKuh-12">
          <mxGeometry width="50" height="50" relative="1" as="geometry">
            <mxPoint x="240.00255063001373" y="375.49892873539443" as="sourcePoint" />
            <mxPoint x="110" y="415.3965218813819" as="targetPoint" />
          </mxGeometry>
        </mxCell>
        <mxCell id="kMpt5xQr2XhZLbOPBm8U-16" value="&lt;font style=&quot;font-size: 9px&quot;&gt;Save Recipe&lt;/font&gt;" style="ellipse;whiteSpace=wrap;html=1;fillColor=#d5e8d4;strokeColor=#82b366;" vertex="1" parent="1">
          <mxGeometry x="455" y="130" width="70" height="30" as="geometry" />
        </mxCell>
        <mxCell id="kMpt5xQr2XhZLbOPBm8U-20" value="&lt;font style=&quot;font-size: 6px&quot;&gt;&amp;lt;&amp;lt;include&amp;gt;&amp;gt;&lt;/font&gt;" style="endArrow=classic;dashed=1;html=1;startArrow=none;startFill=0;endFill=1;exitX=0.964;exitY=0.745;exitDx=0;exitDy=0;entryX=0.008;entryY=0.366;entryDx=0;entryDy=0;entryPerimeter=0;exitPerimeter=0;" edge="1" parent="1" source="n8YXVQ3rzS2zLUIyPKuh-12" target="kMpt5xQr2XhZLbOPBm8U-16">
          <mxGeometry width="50" height="50" relative="1" as="geometry">
            <mxPoint x="443.00000000000364" y="195" as="sourcePoint" />
            <mxPoint x="475.00255063000805" y="165.4989287353966" as="targetPoint" />
          </mxGeometry>
        </mxCell>
        <mxCell id="kMpt5xQr2XhZLbOPBm8U-22" value="&lt;font style=&quot;font-size: 6px&quot;&gt;&amp;lt;&amp;lt;include&amp;gt;&amp;gt;&lt;/font&gt;" style="endArrow=classic;dashed=1;html=1;entryX=0;entryY=0.5;entryDx=0;entryDy=0;startArrow=none;startFill=0;endFill=1;exitX=1;exitY=0.5;exitDx=0;exitDy=0;" edge="1" parent="1" source="cedx61HuCPGpUXk9RweX-11" target="cedx61HuCPGpUXk9RweX-12">
          <mxGeometry width="50" height="50" relative="1" as="geometry">
            <mxPoint x="392.43000000000006" y="289.6" as="sourcePoint" />
            <mxPoint x="299.9974493699865" y="205.4989287353942" as="targetPoint" />
          </mxGeometry>
        </mxCell>
        <mxCell id="kMpt5xQr2XhZLbOPBm8U-23" value="&lt;font style=&quot;font-size: 6px&quot;&gt;&amp;lt;&amp;lt;include&amp;gt;&amp;gt;&lt;/font&gt;" style="endArrow=classic;dashed=1;html=1;entryX=0.079;entryY=0.274;entryDx=0;entryDy=0;startArrow=none;startFill=0;endFill=1;entryPerimeter=0;" edge="1" parent="1" source="cedx61HuCPGpUXk9RweX-6" target="cedx61HuCPGpUXk9RweX-12">
          <mxGeometry width="50" height="50" relative="1" as="geometry">
            <mxPoint x="402.43000000000006" y="299.6" as="sourcePoint" />
            <mxPoint x="309.9974493699865" y="215.4989287353942" as="targetPoint" />
          </mxGeometry>
        </mxCell>
        <mxCell id="kMpt5xQr2XhZLbOPBm8U-24" value="Grocery Store&lt;br&gt;(Secondary Actor)" style="shape=umlActor;verticalLabelPosition=bottom;verticalAlign=top;html=1;outlineConnect=0;" vertex="1" parent="1">
          <mxGeometry x="630" y="455" width="30" height="60" as="geometry" />
        </mxCell>
        <mxCell id="kMpt5xQr2XhZLbOPBm8U-27" value="" style="endArrow=none;html=1;" edge="1" parent="1" source="kMpt5xQr2XhZLbOPBm8U-8" target="kMpt5xQr2XhZLbOPBm8U-7">
          <mxGeometry width="50" height="50" relative="1" as="geometry">
            <mxPoint x="240" y="340" as="sourcePoint" />
            <mxPoint x="290" y="290" as="targetPoint" />
          </mxGeometry>
        </mxCell>
        <mxCell id="kMpt5xQr2XhZLbOPBm8U-28" value="" style="endArrow=none;html=1;exitX=1;exitY=0.5;exitDx=0;exitDy=0;" edge="1" parent="1" source="n8YXVQ3rzS2zLUIyPKuh-2" target="kMpt5xQr2XhZLbOPBm8U-24">
          <mxGeometry width="50" height="50" relative="1" as="geometry">
            <mxPoint x="378.1491722946075" y="360.1867712359118" as="sourcePoint" />
            <mxPoint x="640" y="322.17741935483866" as="targetPoint" />
          </mxGeometry>
        </mxCell>
        <mxCell id="kMpt5xQr2XhZLbOPBm8U-29" value="&lt;font style=&quot;font-size: 6px&quot;&gt;&amp;lt;&amp;lt;include&amp;gt;&amp;gt;&lt;/font&gt;" style="endArrow=classic;dashed=1;html=1;entryX=0.647;entryY=1.032;entryDx=0;entryDy=0;startArrow=none;startFill=0;endFill=1;exitX=0.598;exitY=0.044;exitDx=0;exitDy=0;exitPerimeter=0;entryPerimeter=0;" edge="1" parent="1" source="n8YXVQ3rzS2zLUIyPKuh-2" target="cedx61HuCPGpUXk9RweX-12">
          <mxGeometry width="50" height="50" relative="1" as="geometry">
            <mxPoint x="360.3800000000001" y="586.24" as="sourcePoint" />
            <mxPoint x="477.9999999999998" y="310" as="targetPoint" />
          </mxGeometry>
        </mxCell>
        <mxCell id="kMpt5xQr2XhZLbOPBm8U-30" value="&lt;font style=&quot;font-size: 9px&quot;&gt;Get Recipe Suggestion&lt;/font&gt;" style="ellipse;whiteSpace=wrap;html=1;fillColor=#fff2cc;strokeColor=#d6b656;" vertex="1" parent="1">
          <mxGeometry x="433" y="270" width="70" height="30" as="geometry" />
        </mxCell>
        <mxCell id="kMpt5xQr2XhZLbOPBm8U-31" value="&lt;font size=&quot;1&quot;&gt;Edit Food Profile (Diet/Pallet) + shuffle settings&lt;/font&gt;" style="ellipse;whiteSpace=wrap;html=1;fillColor=#fff2cc;strokeColor=#d6b656;" vertex="1" parent="1">
          <mxGeometry x="285" y="470" width="70" height="30" as="geometry" />
        </mxCell>
      </root>
    </mxGraphModel>
  </diagram>
</mxfile>
